<svg width="28" height="26" viewBox="0 0 28 26" fill="none" xmlns="http://www.w3.org/2000/svg">
<g id="fluent:chat-24-filled">
<path id="Vector" d="M14 2.16675C20.4435 2.16675 25.6667 7.01683 25.6667 13.0001C25.6667 18.9833 20.4435 23.8334 14 23.8334C12.1126 23.8357 10.253 23.4111 8.582 22.5962L3.577 23.8063C3.40977 23.8468 3.23405 23.8459 3.06727 23.8039C2.90049 23.7619 2.74844 23.6801 2.62618 23.5667C2.50393 23.4533 2.41571 23.3121 2.37028 23.1573C2.32484 23.0025 2.32377 22.8393 2.36717 22.684L3.66917 18.0376C2.78927 16.4843 2.33073 14.7551 2.33333 13.0001C2.33333 7.01683 7.5565 2.16675 14 2.16675ZM15.4607 14.0834H10.2083L10.0893 14.091C9.8799 14.1178 9.68799 14.214 9.54906 14.362C9.41014 14.5099 9.3336 14.6996 9.3336 14.8959C9.3336 15.0922 9.41014 15.2819 9.54906 15.4298C9.68799 15.5778 9.8799 15.6741 10.0893 15.7008L10.2083 15.7084H15.4607L15.5785 15.7008C15.7879 15.6741 15.9798 15.5778 16.1188 15.4298C16.2577 15.2819 16.3342 15.0922 16.3342 14.8959C16.3342 14.6996 16.2577 14.5099 16.1188 14.362C15.9798 14.214 15.7879 14.1178 15.5785 14.091L15.4607 14.0834ZM17.7917 10.2917H10.2083L10.0893 10.2993C9.8799 10.3261 9.68799 10.4223 9.54906 10.5703C9.41014 10.7183 9.3336 10.9079 9.3336 11.1042C9.3336 11.3006 9.41014 11.4902 9.54906 11.6382C9.68799 11.7861 9.8799 11.8824 10.0893 11.9092L10.2083 11.9167H17.7917L17.9107 11.9092C18.1201 11.8824 18.312 11.7861 18.4509 11.6382C18.5899 11.4902 18.6664 11.3006 18.6664 11.1042C18.6664 10.9079 18.5899 10.7183 18.4509 10.5703C18.312 10.4223 18.1201 10.3261 17.9107 10.2993L17.7917 10.2917Z" fill="#5454CC"/>
</g>
</svg>
