<svg width="18" height="18" viewBox="0 0 18 18" fill="none" xmlns="http://www.w3.org/2000/svg">
<g id="Frame">
<path id="Vector" d="M9 5.0625C8.85082 5.0625 8.70774 5.00324 8.60225 4.89775C8.49676 4.79226 8.4375 4.64918 8.4375 4.5C8.4375 4.35082 8.49676 4.20774 8.60225 4.10225C8.70774 3.99676 8.85082 3.9375 9 3.9375C9.14918 3.9375 9.29226 3.99676 9.39775 4.10225C9.50324 4.20774 9.5625 4.35082 9.5625 4.5C9.5625 4.64918 9.50324 4.79226 9.39775 4.89775C9.29226 5.00324 9.14918 5.0625 9 5.0625ZM9 9.5625C8.85082 9.5625 8.70774 9.50324 8.60225 9.39775C8.49676 9.29226 8.4375 9.14918 8.4375 9C8.4375 8.85082 8.49676 8.70774 8.60225 8.60225C8.70774 8.49676 8.85082 8.4375 9 8.4375C9.14918 8.4375 9.29226 8.49676 9.39775 8.60225C9.50324 8.70774 9.5625 8.85082 9.5625 9C9.5625 9.14918 9.50324 9.29226 9.39775 9.39775C9.29226 9.50324 9.14918 9.5625 9 9.5625ZM9 14.0625C8.85082 14.0625 8.70774 14.0032 8.60225 13.8977C8.49676 13.7923 8.4375 13.6492 8.4375 13.5C8.4375 13.3508 8.49676 13.2077 8.60225 13.1023C8.70774 12.9968 8.85082 12.9375 9 12.9375C9.14918 12.9375 9.29226 12.9968 9.39775 13.1023C9.50324 13.2077 9.5625 13.3508 9.5625 13.5C9.5625 13.6492 9.50324 13.7923 9.39775 13.8977C9.29226 14.0032 9.14918 14.0625 9 14.0625Z" stroke="#444951" stroke-width="1.5" stroke-linecap="round" stroke-linejoin="round"/>
</g>
</svg>
