<svg width="20" height="20" viewBox="0 0 20 20" fill="none" xmlns="http://www.w3.org/2000/svg">
<g id="Frame">
<path id="Vector" fill-rule="evenodd" clip-rule="evenodd" d="M10 1.875C5.5125 1.875 1.875 5.5125 1.875 10C1.875 14.4875 5.5125 18.125 10 18.125C14.4875 18.125 18.125 14.4875 18.125 10C18.125 5.5125 14.4875 1.875 10 1.875ZM8.56667 7.68333C8.50945 7.62193 8.44045 7.57268 8.36378 7.53852C8.28712 7.50436 8.20435 7.48599 8.12043 7.48451C8.03652 7.48303 7.95316 7.49846 7.87534 7.5299C7.79751 7.56133 7.72682 7.60812 7.66747 7.66747C7.60812 7.72682 7.56133 7.79751 7.5299 7.87534C7.49846 7.95316 7.48303 8.03652 7.48451 8.12043C7.48599 8.20435 7.50436 8.28712 7.53852 8.36378C7.57268 8.44045 7.62193 8.50945 7.68333 8.56667L9.11667 10L7.68333 11.4333C7.62193 11.4906 7.57268 11.5596 7.53852 11.6362C7.50436 11.7129 7.48599 11.7956 7.48451 11.8796C7.48303 11.9635 7.49846 12.0468 7.5299 12.1247C7.56133 12.2025 7.60812 12.2732 7.66747 12.3325C7.72682 12.3919 7.79751 12.4387 7.87534 12.4701C7.95316 12.5015 8.03652 12.517 8.12043 12.5155C8.20435 12.514 8.28712 12.4956 8.36378 12.4615C8.44045 12.4273 8.50945 12.3781 8.56667 12.3167L10 10.8833L11.4333 12.3167C11.4906 12.3781 11.5596 12.4273 11.6362 12.4615C11.7129 12.4956 11.7956 12.514 11.8796 12.5155C11.9635 12.517 12.0468 12.5015 12.1247 12.4701C12.2025 12.4387 12.2732 12.3919 12.3325 12.3325C12.3919 12.2732 12.4387 12.2025 12.4701 12.1247C12.5015 12.0468 12.517 11.9635 12.5155 11.8796C12.514 11.7956 12.4956 11.7129 12.4615 11.6362C12.4273 11.5596 12.3781 11.4906 12.3167 11.4333L10.8833 10L12.3167 8.56667C12.3781 8.50945 12.4273 8.44045 12.4615 8.36378C12.4956 8.28712 12.514 8.20435 12.5155 8.12043C12.517 8.03652 12.5015 7.95316 12.4701 7.87534C12.4387 7.79751 12.3919 7.72682 12.3325 7.66747C12.2732 7.60812 12.2025 7.56133 12.1247 7.5299C12.0468 7.49846 11.9635 7.48303 11.8796 7.48451C11.7956 7.48599 11.7129 7.50436 11.6362 7.53852C11.5596 7.57268 11.4906 7.62193 11.4333 7.68333L10 9.11667L8.56667 7.68333Z" fill="#444951"/>
</g>
</svg>
