<svg width="18" height="18" viewBox="0 0 18 18" fill="none" xmlns="http://www.w3.org/2000/svg">
<g id="Frame">
<path id="Vector" fill-rule="evenodd" clip-rule="evenodd" d="M4.10249 4.10261C4.20796 3.99728 4.35093 3.93811 4.49999 3.93811C4.64906 3.93811 4.79202 3.99728 4.89749 4.10261L8.99999 8.20511L13.1025 4.10261C13.154 4.04735 13.2161 4.00302 13.2851 3.97228C13.3541 3.94154 13.4286 3.925 13.5041 3.92367C13.5796 3.92234 13.6546 3.93623 13.7247 3.96452C13.7947 3.99281 13.8584 4.03492 13.9118 4.08834C13.9652 4.14175 14.0073 4.20538 14.0356 4.27542C14.0639 4.34546 14.0778 4.42048 14.0764 4.49601C14.0751 4.57153 14.0586 4.64602 14.0278 4.71502C13.9971 4.78402 13.9528 4.84612 13.8975 4.89762L9.79499 9.00012L13.8975 13.1026C13.9528 13.1541 13.9971 13.2162 14.0278 13.2852C14.0586 13.3542 14.0751 13.4287 14.0764 13.5042C14.0778 13.5798 14.0639 13.6548 14.0356 13.7248C14.0073 13.7949 13.9652 13.8585 13.9118 13.9119C13.8584 13.9653 13.7947 14.0074 13.7247 14.0357C13.6546 14.064 13.5796 14.0779 13.5041 14.0766C13.4286 14.0752 13.3541 14.0587 13.2851 14.028C13.2161 13.9972 13.154 13.9529 13.1025 13.8976L8.99999 9.79512L4.89749 13.8976C4.79086 13.997 4.64983 14.0511 4.5041 14.0485C4.35838 14.0459 4.21934 13.9869 4.11628 13.8838C4.01322 13.7808 3.95418 13.6417 3.95161 13.496C3.94904 13.3503 4.00313 13.2092 4.10249 13.1026L8.20499 9.00012L4.10249 4.89762C3.99716 4.79215 3.93799 4.64918 3.93799 4.50012C3.93799 4.35105 3.99716 4.20808 4.10249 4.10261Z" fill="#444951"/>
</g>
</svg>
