<svg width="14" height="14" viewBox="0 0 14 14" fill="none" xmlns="http://www.w3.org/2000/svg">
<g id="new 1" clip-path="url(#clip0_46_1032)">
<g id="Clip path group">
<mask id="mask0_46_1032" style="mask-type:luminance" maskUnits="userSpaceOnUse" x="0" y="0" width="14" height="14">
<g id="clip0_15_1048">
<path id="Vector" d="M14 7C14 3.13401 10.866 0 7 0C3.13401 0 0 3.13401 0 7C0 10.866 3.13401 14 7 14C10.866 14 14 10.866 14 7Z" fill="white"/>
</g>
</mask>
<g mask="url(#mask0_46_1032)">
<g id="Group">
<path id="Vector_2" d="M14 7C14 3.13401 10.866 0 7 0C3.13401 0 0 3.13401 0 7C0 10.866 3.13401 14 7 14C10.866 14 14 10.866 14 7Z" fill="#5F5FE6"/>
<path id="Vector_3" d="M9.03 9.99997H7.509L4.8 4.95997H4.764C4.77 5.09197 4.776 5.23297 4.782 5.38297C4.788 5.52697 4.794 5.67698 4.8 5.83297C4.812 5.98298 4.821 6.13597 4.827 6.29197C4.833 6.44797 4.836 6.60398 4.836 6.75997V9.99997H3.756V3.57397H5.268L7.968 8.57797H8.004C7.998 8.45797 7.992 8.32897 7.986 8.19097C7.98 8.04697 7.974 7.89997 7.968 7.74997C7.962 7.59997 7.956 7.44697 7.95 7.29097C7.944 7.13497 7.941 6.98497 7.941 6.84097V3.57397H9.03V9.99997Z" fill="#FAF6FF"/>
</g>
</g>
</g>
</g>
<defs>
<clipPath id="clip0_46_1032">
<rect width="14" height="14" fill="white"/>
</clipPath>
</defs>
</svg>
