<svg width="24" height="24" viewBox="0 0 24 24" fill="none" xmlns="http://www.w3.org/2000/svg">
<g id="Frame">
<path id="Vector" fill-rule="evenodd" clip-rule="evenodd" d="M7.72001 12.53C7.57956 12.3894 7.50067 12.1988 7.50067 12C7.50067 11.8013 7.57956 11.6106 7.72001 11.47L15.22 3.97C15.2887 3.89631 15.3715 3.83721 15.4635 3.79622C15.5555 3.75523 15.6548 3.73319 15.7555 3.73141C15.8562 3.72963 15.9562 3.74816 16.0496 3.78588C16.143 3.8236 16.2278 3.87974 16.299 3.95096C16.3703 4.02218 16.4264 4.10702 16.4641 4.2004C16.5019 4.29379 16.5204 4.39382 16.5186 4.49452C16.5168 4.59523 16.4948 4.69454 16.4538 4.78654C16.4128 4.87854 16.3537 4.96134 16.28 5.03L9.31001 12L16.28 18.97C16.3537 19.0387 16.4128 19.1215 16.4538 19.2135C16.4948 19.3055 16.5168 19.4048 16.5186 19.5055C16.5204 19.6062 16.5019 19.7062 16.4641 19.7996C16.4264 19.893 16.3703 19.9778 16.299 20.049C16.2278 20.1203 16.143 20.1764 16.0496 20.2141C15.9562 20.2518 15.8562 20.2704 15.7555 20.2686C15.6548 20.2668 15.5555 20.2448 15.4635 20.2038C15.3715 20.1628 15.2887 20.1037 15.22 20.03L7.72001 12.53Z" fill="black"/>
</g>
</svg>
